<svg xmlns="http://www.w3.org/2000/svg" viewBox="0 0 1200 560" width="1200" height="560" role="img" aria-label="swarmshield hero">
<title>swarmshield hero</title>
<rect width="1200" height="560" fill="#0f1113"/>
<defs><linearGradient id="gh" x1="0" y1="0" x2="1" y2="1"><stop offset="0%" stop-color="#ff7a5c"/><stop offset="100%" stop-color="#9aa5b1"/></linearGradient></defs><rect x="96.00" y="150.00" width="88.00" height="72.00" rx="8.00" fill="#ff7a5c" opacity="0.73"/><rect x="196.00" y="150.00" width="88.00" height="72.00" rx="8.00" fill="#9aa5b1" opacity="0.93"/><rect x="296.00" y="150.00" width="88.00" height="72.00" rx="8.00" fill="#ffd8b1" opacity="0.62"/><rect x="396.00" y="150.00" width="88.00" height="72.00" rx="8.00" fill="#ff7a5c" opacity="0.87"/><rect x="496.00" y="150.00" width="88.00" height="72.00" rx="8.00" fill="#9aa5b1" opacity="0.94"/><rect x="596.00" y="150.00" width="88.00" height="72.00" rx="8.00" fill="#ffd8b1" opacity="0.50"/><rect x="696.00" y="150.00" width="88.00" height="72.00" rx="8.00" fill="#ff7a5c" opacity="0.48"/><rect x="796.00" y="150.00" width="88.00" height="72.00" rx="8.00" fill="#9aa5b1" opacity="0.41"/><rect x="896.00" y="150.00" width="88.00" height="72.00" rx="8.00" fill="#ffd8b1" opacity="0.43"/><rect x="996.00" y="150.00" width="88.00" height="72.00" rx="8.00" fill="#ff7a5c" opacity="0.59"/><rect x="96.00" y="234.00" width="88.00" height="72.00" rx="8.00" fill="#9aa5b1" opacity="0.65"/><rect x="196.00" y="234.00" width="88.00" height="72.00" rx="8.00" fill="#ffd8b1" opacity="0.82"/><rect x="296.00" y="234.00" width="88.00" height="72.00" rx="8.00" fill="#ff7a5c" opacity="0.83"/><rect x="396.00" y="234.00" width="88.00" height="72.00" rx="8.00" fill="#9aa5b1" opacity="0.75"/><rect x="496.00" y="234.00" width="88.00" height="72.00" rx="8.00" fill="#ffd8b1" opacity="0.60"/><rect x="596.00" y="234.00" width="88.00" height="72.00" rx="8.00" fill="#ff7a5c" opacity="0.94"/><rect x="696.00" y="234.00" width="88.00" height="72.00" rx="8.00" fill="#9aa5b1" opacity="0.46"/><rect x="796.00" y="234.00" width="88.00" height="72.00" rx="8.00" fill="#ffd8b1" opacity="0.84"/><rect x="896.00" y="234.00" width="88.00" height="72.00" rx="8.00" fill="#ff7a5c" opacity="0.87"/><rect x="996.00" y="234.00" width="88.00" height="72.00" rx="8.00" fill="#9aa5b1" opacity="0.66"/><rect x="96.00" y="318.00" width="88.00" height="72.00" rx="8.00" fill="#ffd8b1" opacity="0.84"/><rect x="196.00" y="318.00" width="88.00" height="72.00" rx="8.00" fill="#ff7a5c" opacity="0.66"/><rect x="296.00" y="318.00" width="88.00" height="72.00" rx="8.00" fill="#9aa5b1" opacity="0.49"/><rect x="396.00" y="318.00" width="88.00" height="72.00" rx="8.00" fill="#ffd8b1" opacity="0.68"/><rect x="496.00" y="318.00" width="88.00" height="72.00" rx="8.00" fill="#ff7a5c" opacity="0.62"/><rect x="596.00" y="318.00" width="88.00" height="72.00" rx="8.00" fill="#9aa5b1" opacity="0.75"/><rect x="696.00" y="318.00" width="88.00" height="72.00" rx="8.00" fill="#ffd8b1" opacity="0.87"/><rect x="796.00" y="318.00" width="88.00" height="72.00" rx="8.00" fill="#ff7a5c" opacity="0.38"/><rect x="896.00" y="318.00" width="88.00" height="72.00" rx="8.00" fill="#9aa5b1" opacity="0.37"/><rect x="996.00" y="318.00" width="88.00" height="72.00" rx="8.00" fill="#ffd8b1" opacity="0.95"/><rect x="96.00" y="402.00" width="88.00" height="72.00" rx="8.00" fill="#ff7a5c" opacity="0.84"/><rect x="196.00" y="402.00" width="88.00" height="72.00" rx="8.00" fill="#9aa5b1" opacity="0.77"/><rect x="296.00" y="402.00" width="88.00" height="72.00" rx="8.00" fill="#ffd8b1" opacity="0.56"/><rect x="396.00" y="402.00" width="88.00" height="72.00" rx="8.00" fill="#ff7a5c" opacity="0.56"/><rect x="496.00" y="402.00" width="88.00" height="72.00" rx="8.00" fill="#9aa5b1" opacity="0.82"/><rect x="596.00" y="402.00" width="88.00" height="72.00" rx="8.00" fill="#ffd8b1" opacity="0.89"/><rect x="696.00" y="402.00" width="88.00" height="72.00" rx="8.00" fill="#ff7a5c" opacity="0.54"/><rect x="796.00" y="402.00" width="88.00" height="72.00" rx="8.00" fill="#9aa5b1" opacity="0.91"/><rect x="896.00" y="402.00" width="88.00" height="72.00" rx="8.00" fill="#ffd8b1" opacity="0.89"/><rect x="996.00" y="402.00" width="88.00" height="72.00" rx="8.00" fill="#ff7a5c" opacity="0.95"/><rect x="96.00" y="486.00" width="88.00" height="72.00" rx="8.00" fill="#9aa5b1" opacity="0.46"/><rect x="196.00" y="486.00" width="88.00" height="72.00" rx="8.00" fill="#ffd8b1" opacity="0.74"/><rect x="296.00" y="486.00" width="88.00" height="72.00" rx="8.00" fill="#ff7a5c" opacity="0.79"/><rect x="396.00" y="486.00" width="88.00" height="72.00" rx="8.00" fill="#9aa5b1" opacity="0.77"/><rect x="496.00" y="486.00" width="88.00" height="72.00" rx="8.00" fill="#ffd8b1" opacity="0.62"/><rect x="596.00" y="486.00" width="88.00" height="72.00" rx="8.00" fill="#ff7a5c" opacity="0.70"/><rect x="696.00" y="486.00" width="88.00" height="72.00" rx="8.00" fill="#9aa5b1" opacity="0.59"/><rect x="796.00" y="486.00" width="88.00" height="72.00" rx="8.00" fill="#ffd8b1" opacity="0.89"/><rect x="896.00" y="486.00" width="88.00" height="72.00" rx="8.00" fill="#ff7a5c" opacity="0.73"/><rect x="996.00" y="486.00" width="88.00" height="72.00" rx="8.00" fill="#9aa5b1" opacity="0.52"/><g><rect x="96.00" y="150.00" width="88.00" height="72.00" rx="8.00" fill="#ffd8b1" opacity="0.80"/><animate attributeName="opacity" values="0.25;1.0;0.25" dur="12.466666666666667s" begin="3.38s" repeatCount="indefinite" /></g><g><rect x="196.00" y="150.00" width="88.00" height="72.00" rx="8.00" fill="#ffd8b1" opacity="0.80"/><animate attributeName="opacity" values="0.25;1.0;0.25" dur="12.466666666666667s" begin="3.6999999999999997s" repeatCount="indefinite" /></g><g><rect x="296.00" y="150.00" width="88.00" height="72.00" rx="8.00" fill="#ffd8b1" opacity="0.80"/><animate attributeName="opacity" values="0.25;1.0;0.25" dur="12.466666666666667s" begin="4.02s" repeatCount="indefinite" /></g><g><rect x="396.00" y="150.00" width="88.00" height="72.00" rx="8.00" fill="#ffd8b1" opacity="0.80"/><animate attributeName="opacity" values="0.25;1.0;0.25" dur="12.466666666666667s" begin="4.34s" repeatCount="indefinite" /></g><g><rect x="496.00" y="150.00" width="88.00" height="72.00" rx="8.00" fill="#ffd8b1" opacity="0.80"/><animate attributeName="opacity" values="0.25;1.0;0.25" dur="12.466666666666667s" begin="4.66s" repeatCount="indefinite" /></g><g><rect x="596.00" y="150.00" width="88.00" height="72.00" rx="8.00" fill="#ffd8b1" opacity="0.80"/><animate attributeName="opacity" values="0.25;1.0;0.25" dur="12.466666666666667s" begin="4.98s" repeatCount="indefinite" /></g><g><rect x="696.00" y="150.00" width="88.00" height="72.00" rx="8.00" fill="#ffd8b1" opacity="0.80"/><animate attributeName="opacity" values="0.25;1.0;0.25" dur="12.466666666666667s" begin="5.3s" repeatCount="indefinite" /></g><g><rect x="796.00" y="150.00" width="88.00" height="72.00" rx="8.00" fill="#ffd8b1" opacity="0.80"/><animate attributeName="opacity" values="0.25;1.0;0.25" dur="12.466666666666667s" begin="5.62s" repeatCount="indefinite" /></g><g><rect x="896.00" y="150.00" width="88.00" height="72.00" rx="8.00" fill="#ffd8b1" opacity="0.80"/><animate attributeName="opacity" values="0.25;1.0;0.25" dur="12.466666666666667s" begin="5.9399999999999995s" repeatCount="indefinite" /></g><g><rect x="996.00" y="150.00" width="88.00" height="72.00" rx="8.00" fill="#ffd8b1" opacity="0.80"/><animate attributeName="opacity" values="0.25;1.0;0.25" dur="12.466666666666667s" begin="6.26s" repeatCount="indefinite" /></g>
</svg>